{
  "accessors": [
    {
      "bufferView": 1,
      "componentType": 5126,
      "count": 21218,
      "max": [
        5.7253899574279785,
        37.99919128417969,
        5.7253899574279785
      ],
      "min": [
        -5.7253899574279785,
        0.00016999999934341758,
        -5.7253899574279785
      ],
      "type": "VEC3"
    },
    {
      "bufferView": 1,
      "byteOffset": 254616,
      "componentType": 5126,
      "count": 21218,
      "max": [
        1.0,
        1.0,
        1.0
      ],
      "min": [
        -1.0,
        -1.0,
        -1.0
      ],
      "type": "VEC3"
    },
    {
      "bufferView": 0,
      "componentType": 5125,
      "count": 125568,
      "type": "SCALAR"
    },
    {
      "bufferView": 1,
      "byteOffset": 509232,
      "componentType": 5126,
      "count": 2208,
      "max": [
        5.714300155639648,
        27.232410430908203,
        5.714300155639648
      ],
      "min": [
        -5.714300155639648,
        14.429900169372559,
        -5.714300155639648
      ],
      "type": "VEC3"
    },
    {
      "bufferView": 1,
      "byteOffset": 535728,
      "componentType": 5126,
      "count": 2208,
      "max": [
        0.999865710735321,
        0.1760658621788025,
        0.999865710735321
      ],
      "min": [
        -0.999865710735321,
        0.016390109434723854,
        -0.999865710735321
      ],
      "type": "VEC3"
    },
    {
      "bufferView": 0,
      "byteOffset": 502272,
      "componentType": 5125,
      "count": 11520,
      "type": "SCALAR"
    }
  ],
  "asset": {
    "extras": {
      "author": "borkia (https://sketchfab.com/borkia)",
      "license": "CC-BY-4.0 (http://creativecommons.org/licenses/by/4.0/)",
      "source": "https://sketchfab.com/3d-models/bowling-pin-6f4789c7c0f74c55adfedc57c73dba60",
      "title": "Bowling pin"
    },
    "generator": "Sketchfab-12.67.0",
    "version": "2.0"
  },
  "bufferViews": [
    {
      "buffer": 0,
      "byteLength": 548352,
      "name": "floatBufferViews",
      "target": 34963
    },
    {
      "buffer": 0,
      "byteLength": 562224,
      "byteOffset": 548352,
      "byteStride": 12,
      "name": "floatBufferViews",
      "target": 34962
    }
  ],
  "buffers": [
    {
      "byteLength": 1110576,
      "uri": "scene.bin"
    }
  ],
  "materials": [
    {
      "doubleSided": true,
      "name": "Glossy_white_pin",
      "pbrMetallicRoughness": {
        "baseColorFactor": [
          0.3186172834302962,
          0.0,
          0.0,
          1.0
        ],
        "metallicFactor": 0.0,
        "roughnessFactor": 0.6
      }
    },
    {
      "doubleSided": true,
      "name": "Red_pin_stripe",
      "pbrMetallicRoughness": {
        "metallicFactor": 0.0,
        "roughnessFactor": 0.6
      }
    }
  ],
  "meshes": [
    {
      "name": "Pin_0",
      "primitives": [
        {
          "attributes": {
            "NORMAL": 1,
            "POSITION": 0
          },
          "indices": 2,
          "material": 0,
          "mode": 4
        }
      ]
    },
    {
      "name": "Pin_1",
      "primitives": [
        {
          "attributes": {
            "NORMAL": 4,
            "POSITION": 3
          },
          "indices": 5,
          "material": 1,
          "mode": 4
        }
      ]
    }
  ],
  "nodes": [
    {
      "children": [
        1
      ],
      "matrix": [
        1.0,
        0.0,
        0.0,
        0.0,
        0.0,
        3.828568672208042e-16,
        -1.0,
        0.0,
        0.0,
        1.0,
        3.828568672208042e-16,
        0.0,
        0.0,
        6.784285712154976e-31,
        -3.055370660523613e-15,
        1.0
      ],
      "name": "Sketchfab_model"
    },
    {
      "children": [
        2,
        4
      ],
      "name": "Root"
    },
    {
      "children": [
        3
      ],
      "matrix": [
        -0.43529,
        1.4294399999999998,
        -0.08259000000000002,
        0.0,
        -1.15398,
        -0.29913,
        0.9046900000000001,
        0.0,
        0.8476300000000001,
        0.32683000000000006,
        1.1892500000000001,
        0.0,
        4.85302,
        2.48355,
        7.554279999999999,
        1.0
      ],
      "name": "Lamp"
    },
    {
      "name": "Lamp"
    },
    {
      "children": [
        5,
        6
      ],
      "matrix": [
        1.0,
        0.0,
        0.0,
        0.0,
        0.0,
        -0.0,
        1.0,
        0.0,
        0.0,
        -1.0,
        -0.0,
        0.0,
        0.0,
        0.0,
        0.0,
        1.0
      ],
      "name": "Pin"
    },
    {
      "mesh": 0,
      "name": "Pin_0"
    },
    {
      "mesh": 1,
      "name": "Pin_1"
    }
  ],
  "scene": 0,
  "scenes": [
    {
      "name": "Sketchfab_Scene",
      "nodes": [
        0
      ]
    }
  ]
}
